<svg xmlns="http://www.w3.org/2000/svg" width="20" height="20" viewBox="0 0 34 34" fill="none">
  <path d="M1.94062 0H32.0594C33.0803 0 34 0.91967 34 1.94062V32.0594C34 33.0803 33.0803 34 32.0594 34H1.94062C0.91967 34 0 33.0803 0 32.0594V1.94062C0 0.91967 0.91967 0 1.94062 0ZM24.145 19.0909H28.8414L29.0455 14.5987H24.145V11.2811C24.145 10.0053 24.3998 9.28981 26.0333 9.28981H28.892L28.9949 5.1031C28.9949 5.1031 27.7191 4.89892 25.8814 4.89892C21.3893 4.89892 19.398 7.70693 19.398 10.7191V14.5987H16.0803V19.0909H19.398V31.5465H24.145V19.0909Z" fill="#2E2E2E"/>
</svg>