<svg xmlns="http://www.w3.org/2000/svg" width="20" height="20" viewBox="0 0 38 38" fill="none">
  <path fill-rule="evenodd" clip-rule="evenodd" d="M19 28.5C24.2467 28.5 28.5 24.2467 28.5 19C28.5 13.7533 24.2467 9.5 19 9.5C13.7533 9.5 9.5 13.7533 9.5 19C9.5 24.2467 13.7533 28.5 19 28.5ZM19 25.3333C22.4977 25.3333 25.3333 22.4977 25.3333 19C25.3333 15.5022 22.4977 12.6667 19 12.6667C15.5022 12.6667 12.6667 15.5022 12.6667 19C12.6667 22.4977 15.5022 25.3333 19 25.3333Z" fill="#2E2E2E"/>
  <path d="M28.4998 7.91699C27.6254 7.91699 26.9165 8.62588 26.9165 9.50033C26.9165 10.3748 27.6254 11.0837 28.4998 11.0837C29.3743 11.0837 30.0832 10.3748 30.0832 9.50033C30.0832 8.62588 29.3743 7.91699 28.4998 7.91699Z" fill="#2E2E2E"/>
  <path fill-rule="evenodd" clip-rule="evenodd" d="M2.61893 6.7701C1.5835 8.80226 1.5835 11.4625 1.5835 16.783V21.2163C1.5835 26.5368 1.5835 29.1971 2.61893 31.2292C3.52973 33.0168 4.98304 34.4701 6.77059 35.3808C8.80275 36.4163 11.463 36.4163 16.7835 36.4163H21.2168C26.5373 36.4163 29.1976 36.4163 31.2297 35.3808C33.0173 34.4701 34.4706 33.0168 35.3813 31.2292C36.4168 29.1971 36.4168 26.5368 36.4168 21.2163V16.783C36.4168 11.4625 36.4168 8.80226 35.3813 6.7701C34.4706 4.98255 33.0173 3.52924 31.2297 2.61844C29.1976 1.58301 26.5373 1.58301 21.2168 1.58301H16.7835C11.463 1.58301 8.80275 1.58301 6.77059 2.61844C4.98304 3.52924 3.52973 4.98255 2.61893 6.7701ZM21.2168 4.74967H16.7835C14.071 4.74967 12.2271 4.75214 10.8018 4.86858C9.41346 4.98201 8.70349 5.18761 8.20823 5.43996C7.01653 6.04717 6.04766 7.01604 5.44045 8.20774C5.1881 8.70301 4.9825 9.41297 4.86907 10.8013C4.75263 12.2266 4.75016 14.0705 4.75016 16.783V21.2163C4.75016 23.9289 4.75263 25.7727 4.86907 27.198C4.9825 28.5864 5.1881 29.2964 5.44045 29.7917C6.04766 30.9833 7.01653 31.9521 8.20823 32.5593C8.70349 32.8117 9.41346 33.0174 10.8018 33.1308C12.2271 33.2471 14.071 33.2497 16.7835 33.2497H21.2168C23.9294 33.2497 25.7732 33.2471 27.1985 33.1308C28.5869 33.0174 29.2969 32.8117 29.7922 32.5593C30.9838 31.9521 31.9526 30.9833 32.5598 29.7917C32.8122 29.2964 33.0179 28.5864 33.1313 27.198C33.2476 25.7727 33.2502 23.9289 33.2502 21.2163V16.783C33.2502 14.0705 33.2476 12.2266 33.1313 10.8013C33.0179 9.41297 32.8122 8.70301 32.5598 8.20774C31.9526 7.01604 30.9838 6.04717 29.7922 5.43996C29.2969 5.18761 28.5869 4.98201 27.1985 4.86858C25.7732 4.75214 23.9294 4.74967 21.2168 4.74967Z" fill="#2E2E2E"/>
</svg>