<svg version="1.1" id="Layer_1" xmlns="http://www.w3.org/2000/svg" xmlns:xlink="http://www.w3.org/1999/xlink" x="0px" y="0px"
	 width="50px" viewBox="0 0 400 400" enable-background="new 0 0 400 400" xml:space="preserve">
<path fill="#000000" opacity="1.000000" stroke="none" 
	d="
M222.000000,401.000000 
	C148.022964,401.000000 74.545929,401.000000 1.034447,401.000000 
	C1.034447,267.731293 1.034447,134.462585 1.034447,1.096937 
	C134.226990,1.096937 267.454071,1.096937 400.840576,1.096937 
	C400.840576,134.333176 400.840576,267.666565 400.840576,401.000000 
	C341.462677,401.000000 281.981323,401.000000 222.000000,401.000000 
M173.600494,167.039383 
	C156.178482,197.496597 138.756470,227.953812 121.139969,258.751038 
	C174.848465,258.751038 227.547318,258.751038 280.852783,258.751038 
	C254.191071,212.093872 227.791473,165.895370 200.993423,118.999626 
	C191.684967,135.305176 182.812683,150.846710 173.600494,167.039383 
z"/>
<path fill="#FEFEFE" opacity="1.000000" stroke="none" 
	d="
M173.770447,166.713806 
	C182.812683,150.846710 191.684967,135.305176 200.993423,118.999626 
	C227.791473,165.895370 254.191071,212.093872 280.852783,258.751038 
	C227.547318,258.751038 174.848465,258.751038 121.139969,258.751038 
	C138.756470,227.953812 156.178482,197.496597 173.770447,166.713806 
z"/>
</svg>